<svg width="129" height="772" viewBox="0 0 129 772" fill="none" xmlns="http://www.w3.org/2000/svg">
<g filter="url(#filter0_i_23_42)">
<path d="M82.4208 467.984C84.1509 477.1 88.8837 484.159 93.6828 492.009C98.032 499.08 102.554 507.236 104.337 517.329C104.423 517.821 104.503 518.32 104.577 518.826C106.041 528.883 105.571 535.383 105.222 541.632C104.831 548.31 104.593 554.817 106.317 565.541C106.548 566.989 106.813 568.512 107.115 570.128C108.3 576.455 109.032 582.848 109.496 589.025C110.138 597.542 110.271 605.648 110.45 612.687C110.653 620.581 110.919 627.139 112.087 631.507C112.567 633.301 112.767 634.851 112.775 636.245C112.788 643.468 107.856 646.599 109.337 659.806C109.341 659.842 109.345 659.879 109.349 659.915C110.145 667.272 110.285 673.352 109.924 679.083C109.528 685.341 108.54 691.248 107.057 698.175C107.008 698.406 106.958 698.637 106.907 698.87C106.023 702.944 105.048 709.537 104.057 717.181C103.291 723.103 102.515 729.657 101.808 736.171C101.094 742.778 100.45 749.345 100.027 755.186C99.5995 761.117 99.4019 766.31 99.6511 770.037C99.749 771.492 99.7698 772.954 99.7242 774.416C99.6415 777.076 99.3363 779.766 98.8873 782.402C98.4352 785.057 97.8354 787.675 97.1598 790.227C96.456 792.885 95.6703 795.47 94.8819 797.946C94.0203 800.652 93.1556 803.228 92.387 805.625C91.6032 808.069 90.9191 810.327 90.434 812.339C90.3507 812.684 90.267 813.022 90.1832 813.351C89.4953 816.05 88.7909 818.205 88.1282 819.898C87.8132 820.703 87.291 821.037 86.811 820.991C86.8107 820.991 86.8104 820.991 86.8101 820.991C86.2129 820.934 85.6819 820.282 85.7149 819.203C85.7705 817.385 85.7993 815.246 85.7789 812.838C85.7582 810.4 85.6879 807.684 85.5382 804.734C85.4099 802.209 85.2234 799.514 84.9551 796.678C84.9517 796.642 84.9483 796.606 84.9449 796.57C84.6495 793.405 84.5691 790.774 84.6353 788.451C84.7208 785.461 85.0508 782.981 85.4961 780.526C85.9428 778.06 86.5056 775.633 87.049 772.73C87.8634 768.352 88.6313 762.98 88.7722 754.885C88.7772 754.584 88.7815 754.285 88.7851 753.987C88.8684 747.078 88.596 740.969 88.3165 735.068C88.0171 728.799 87.709 722.764 87.7376 716.227C87.7607 710.536 88.0383 704.464 88.7546 697.504C88.9619 695.487 89.2056 693.397 89.4895 691.218C90.0985 686.541 90.2304 682.473 90.0799 678.756C89.798 671.852 88.5542 666.222 87.4517 659.963C86.3082 653.518 85.3009 646.709 85.4053 637.212C85.455 632.376 85.7898 626.873 86.4939 620.409C86.7271 618.265 86.899 616.229 87.0168 614.29C87.5883 604.799 86.8883 597.652 85.551 591.48C83.8243 583.566 81.0553 577.234 78.1298 569.458C75.8792 563.504 73.5392 556.706 71.2712 547.714C70.9017 546.254 70.5323 544.731 70.164 543.148C68.8555 537.515 67.6612 531.914 66.3929 525.871C64.667 517.667 62.9887 509.796 61.0915 501.568C59.1607 493.175 57.1153 484.862 55.0324 476.997C52.6381 467.955 50.2069 459.512 47.8813 452.29C46.3803 447.633 44.9218 443.484 43.5206 440.012C41.9901 436.22 40.3407 432.193 38.6157 427.946C35.5576 420.412 32.2553 412.181 29.0153 403.333C26.1062 395.392 23.1757 386.707 20.6618 377.904C18.6635 370.929 16.8515 363.347 15.4596 355.939C15.4424 355.848 15.4253 355.757 15.4081 355.667C14.0575 348.526 12.5794 341.092 11.1096 333.431C9.72566 326.223 8.34907 318.817 7.07556 311.301C5.83819 304.001 4.69729 296.597 3.72779 289.18C2.7614 281.789 1.96461 274.385 1.40387 267.057C0.848944 259.804 0.521718 252.58 0.495128 245.574C0.494322 245.362 0.493517 245.15 0.492762 244.938C0.469459 238.633 0.458555 231.803 0.514801 224.791C0.566578 218.2 0.67496 211.402 0.873749 204.583C1.07114 197.792 1.35935 190.982 1.75348 184.342C2.16809 177.337 2.70177 170.522 3.33518 164.119C4.06204 156.751 4.92208 149.931 5.81826 143.985C6.42093 139.98 7.03699 136.381 7.62723 133.251C8.27497 129.815 8.8899 126.789 9.46204 124.046C10.5786 118.715 11.375 114.364 12.0053 110.222C12.6989 105.647 13.1728 101.338 13.5741 96.2012C13.8924 92.1664 14.1583 87.629 14.5175 82.0412C14.5298 81.8506 14.5423 81.6589 14.5548 81.4659C14.8258 77.3273 15.3691 72.7108 16.2553 67.8745C17.0894 63.3275 18.2282 58.5806 19.7486 53.9035C21.2484 49.2917 23.1671 44.613 25.4927 40.5083C25.7229 40.1315 25.9621 39.6725 26.2114 39.1991C26.4599 38.7288 26.7152 38.2448 26.9765 37.7682C27.2076 37.346 27.4446 36.9249 27.6901 36.508C27.7262 36.4466 27.7623 36.386 27.7983 36.3262C28.1171 35.7965 28.433 35.3242 28.7459 34.912C29.159 34.3672 29.5682 33.9247 29.9679 33.5989C32.7529 31.9905 31.5917 34.1938 32.2092 34.9499C32.1928 35.3078 32.143 35.7732 32.0722 36.3307C32.0172 36.7643 31.9482 37.2544 31.8653 37.7959C31.7942 38.259 31.7132 38.759 31.619 39.2982C31.5969 39.425 31.5739 39.5545 31.5499 39.6865C31.4807 40.0685 31.4112 40.4486 31.3364 40.8353C31.2323 41.3649 31.1273 41.9015 30.9596 42.5209C29.7147 47.4911 28.6453 51.8652 28.01 55.8546C27.4485 59.4522 27.3015 62.6035 27.9915 65.2418C28.4463 66.9885 28.8808 68.5614 29.2651 70.049C30.6328 75.2843 31.3731 79.2536 30.8733 84.1231C30.5368 87.4444 29.6351 91.1833 28.0323 96.0543C27.8516 96.6028 27.6879 97.1433 27.5401 97.6754C26.0086 103.19 26.1826 107.705 26.7512 111.684C27.521 117.014 29.0108 121.493 28.1084 126.135C28.0967 126.195 28.0847 126.254 28.0722 126.313C26.9951 131.648 24.8171 133.115 23.5535 145.118C23.0926 149.764 22.8116 155.975 23.0727 164.543C23.1821 168.08 23.3871 172.017 23.7232 176.408C23.9229 179.016 24.1319 181.55 24.3466 184.015C24.9601 191.047 25.6169 197.512 26.2623 203.476C27.0406 210.655 27.8023 217.11 28.5084 222.958C29.4071 230.387 30.2118 236.776 30.9336 242.496C31.7014 248.571 32.3608 253.704 32.989 258.286C33.2255 260.01 33.4331 261.938 33.6232 264.038C34.1682 270.056 34.5682 277.486 35.109 285.567C35.5649 292.389 36.1244 299.678 36.944 306.965C37.75 314.147 38.8117 321.328 40.2243 328.047C40.6177 329.92 41.0369 331.753 41.4847 333.544C42.5755 337.908 43.81 343.046 45.2361 348.627C46.8689 355.017 48.6771 361.705 50.8674 368.829C53.367 376.956 56.0646 384.989 58.9154 392.895C62.0643 401.623 65.2942 409.9 68.2193 416.871C70.1294 421.419 71.9104 425.411 73.476 428.597C75.9685 433.665 77.5415 437.572 78.5584 440.863C81.4621 450.338 79.8832 454.634 82.3466 467.591C82.3709 467.721 82.3957 467.852 82.4208 467.984Z" fill="#76470B"/>
<path d="M58.0383 95.2988C58.0517 95.2078 58.0676 95.1187 58.0861 95.0316C59.3596 89.398 70.2354 92.1217 73.3521 86.8096C73.448 86.6481 73.538 86.4783 73.6204 86.3015C76.528 80.1836 72.7189 75.4347 78.7804 70.4146C78.844 70.3626 78.9088 70.3105 78.9746 70.2584C83.7324 66.496 86.3914 60.6812 89.2854 57.6153C90.2465 56.5964 91.2277 55.888 92.309 55.6745C96.6325 54.8314 91.5172 49.2555 96.385 46.7356C97.783 46.0143 98.9085 45.2579 99.8376 44.428C102.142 42.3698 103.24 39.8585 104.322 36.3034C104.881 34.4591 106.409 31.7175 108.379 28.9225C109.241 27.6451 110.571 26.1107 111.833 24.7775C113.173 23.3693 114.593 22.0573 115.96 21.0177C117.473 19.8674 118.948 19.0213 120.275 18.6786C120.609 18.5923 120.926 18.4844 121.228 18.3563C123.08 17.5708 124.33 16.0463 125.226 14.2598C126.205 12.3157 126.746 10.0878 127.208 8.12957C127.462 7.04159 127.692 6.03828 127.962 5.2009C128.35 3.92392 128.515 2.8107 128.115 1.42363C127.238 -0.186264 125.966 2.15571 125.646 1.32134C125.317 1.72609 123.794 2.90044 121.761 3.55785C120.956 3.84517 120.066 4.08041 119.076 4.2707C117.663 4.54592 116.674 4.89697 115.921 5.34201C114.229 6.33372 113.772 7.77574 112.44 9.4502C111.583 10.5256 110.359 11.6957 108.207 12.8635C108.197 12.8689 108.187 12.8743 108.177 12.8796C106.37 13.8574 104.602 14.5883 102.894 15.2829C100.993 16.0874 99.3496 16.631 97.3167 17.9561C94.6388 19.5485 92.2359 21.6691 90.1576 25.4843C88.8484 27.8845 87.137 29.0599 85.2481 29.846C80.667 31.7586 74.9971 31.3434 71.6938 40.6091C71.621 40.8151 71.5494 41.0258 71.4791 41.2415C68.6449 50.0007 63.9125 50.4449 58.1493 51.8921C54.7797 52.7469 51.0655 53.9419 47.3484 57.4675C45.7666 58.9711 44.2886 60.7017 42.917 62.577C39.2733 67.5484 36.401 73.5525 34.0966 79.0825C31.7614 84.6656 29.936 89.8804 27.9885 93.0203C27.3453 94.0506 26.6838 95.1122 26.0229 96.1968C23.0769 100.988 19.4614 107.242 16.9498 114.095C16.1374 116.302 15.4208 118.602 14.8495 120.97C13.8907 124.939 12.2886 129.006 10.6083 133.228C8.17129 139.336 5.56943 145.819 4.4978 152.436C4.17974 154.394 3.99514 156.36 3.98659 158.32C3.96468 162.752 4.02216 167.764 4.23635 172.755C4.53709 180.036 5.18597 187.261 5.97022 192.725C6.24084 194.622 6.5242 196.309 6.80601 197.716C8.21191 204.598 8.77343 207.086 7.84248 212.166C7.65519 213.306 7.54095 214.746 7.41745 216.063C7.41428 216.1 7.41126 216.137 7.40839 216.175C7.31594 217.347 7.35703 218.576 7.53369 219.848C7.6942 221.003 7.96574 222.183 8.35234 223.363C8.72532 224.5 9.20396 225.634 9.8 226.744C10.4018 227.858 11.1136 228.948 12.0003 229.995C12.515 230.592 12.8977 231.009 13.834 231.841C21.1394 228.037 8.29699 231.393 17.6458 229.115C17.7063 228.865 17.7221 228.52 17.7351 228.198C17.7652 227.111 17.6523 226.02 17.605 225.033C17.5447 223.778 17.5894 222.653 18.1852 221.632C18.3714 221.314 18.6114 221.005 18.9198 220.71C20.0801 219.597 21.0792 218.681 21.8667 217.877C23.0458 216.674 23.7474 215.708 23.8571 214.769C23.9436 213.915 23.6619 213.481 22.9641 212.885C22.8061 212.55 22.6218 212.199 22.4108 211.829C19.572 206.824 26.7529 205.06 26.1485 202.307C25.7388 200.331 23.5397 199.598 23.8824 194.533C24.0346 192.41 24.6427 189.523 26.1208 185.55C27.3244 182.322 28.3974 179.483 29.353 176.951C32.3827 168.975 34.1702 164.035 35.647 160.372C35.6853 160.278 35.7226 160.181 35.7589 160.083C37.1189 156.343 37.1292 149.126 38.9145 142.577C39.4783 140.486 40.2101 138.477 41.1801 136.703C42.6352 134.036 44.231 130.26 46.0049 126.278C48.5708 120.484 51.3798 114.618 54.2519 110.504C54.9548 109.511 55.6402 108.692 56.2891 108.079C61.1684 103.712 57.2277 101.339 58.0383 95.2988Z" fill="#76470B"/>
</g>
<defs>
<filter id="filter0_i_23_42" x="-7.5262" y="0.84375" width="135.872" height="820.152" filterUnits="userSpaceOnUse" color-interpolation-filters="sRGB">
<feFlood flood-opacity="0" result="BackgroundImageFix"/>
<feBlend mode="normal" in="SourceGraphic" in2="BackgroundImageFix" result="shape"/>
<feColorMatrix in="SourceAlpha" type="matrix" values="0 0 0 0 0 0 0 0 0 0 0 0 0 0 0 0 0 0 127 0" result="hardAlpha"/>
<feMorphology radius="2" operator="erode" in="SourceAlpha" result="effect1_innerShadow_23_42"/>
<feOffset dx="-8"/>
<feGaussianBlur stdDeviation="7.75"/>
<feComposite in2="hardAlpha" operator="arithmetic" k2="-1" k3="1"/>
<feColorMatrix type="matrix" values="0 0 0 0 0.697115 0 0 0 0 0.486812 0 0 0 0 0 0 0 0 0.75 0"/>
<feBlend mode="normal" in2="shape" result="effect1_innerShadow_23_42"/>
</filter>
</defs>
</svg>
